<svg id="Ebene_1" data-name="Ebene 1" xmlns="http://www.w3.org/2000/svg" viewBox="0 0 100 100"><defs><style>.cls-1{fill:#f39700;}.cls-2{fill:#fff;}</style></defs><path class="cls-1" d="M9.41,74.11A59.32,59.32,0,0,0,39.57,93,52,52,0,0,0,71,89.56a44.43,44.43,0,0,0,13.18-9.23,1.24,1.24,0,0,0-.39-1.68,2.38,2.38,0,0,0-1.58,0,79.56,79.56,0,0,1-23,7.73A71.07,71.07,0,0,1,34.1,84.63,88.09,88.09,0,0,1,10.6,72.75a1,1,0,0,0-1.19,1.36Z"/><path class="cls-1" d="M76.23,76a33.29,33.29,0,0,1,9.66-.43l.13,0A2,2,0,0,1,87.47,78a40,40,0,0,1-3,9,.51.51,0,0,0,.33.63.5.5,0,0,0,.44-.08,16.3,16.3,0,0,0,6.13-12.65,2.44,2.44,0,0,0-2-2.6,19,19,0,0,0-13.58,2.81.5.5,0,0,0,.44.88Z"/><path class="cls-2" d="M59.87,63.54a32.6,32.6,0,0,1-5.71,5A26.71,26.71,0,0,1,41,72.2a19.7,19.7,0,0,1-11.34-3.9,19.06,19.06,0,0,1-5.4-19.7A22.13,22.13,0,0,1,37.15,35,72.63,72.63,0,0,1,57.81,32V24.66a7.45,7.45,0,0,0-6.48-6.34,11.89,11.89,0,0,0-6.15.8,9.61,9.61,0,0,0-5.35,6.81,2.34,2.34,0,0,1-2.48,1.32l-10-.88a2.25,2.25,0,0,1-1.66-2,20.35,20.35,0,0,1,7.23-12.46A28.5,28.5,0,0,1,50.72,6a29,29,0,0,1,16.62,5.44A17,17,0,0,1,73.4,25.23V50.55A16.53,16.53,0,0,0,75,56.69l3.13,4.57a2.5,2.5,0,0,1,0,2.2l-9.26,7.8a2.46,2.46,0,0,1-2.5-.08A48.63,48.63,0,0,1,59.87,63.54ZM57.78,40.59a50.5,50.5,0,0,0-8.69.57,12.41,12.41,0,0,0-8.21,6.2,12.32,12.32,0,0,0,.6,10.6,8,8,0,0,0,9.3,2.4,15.47,15.47,0,0,0,7-10.92V40.59"/></svg>