<svg id="Ebene_1" data-name="Ebene 1" xmlns="http://www.w3.org/2000/svg" xmlns:xlink="http://www.w3.org/1999/xlink" viewBox="0 0 100 100"><defs><style>.cls-1,.cls-11{fill:none;}.cls-2{clip-path:url(#clip-path);}.cls-3{fill:#d5d7d8;}.cls-4{fill:#fff;}.cls-5{fill:#2d4f8e;}.cls-6{fill:url(#Unbenannter_Verlauf_2);}.cls-7{fill:url(#Unbenannter_Verlauf_2-2);}.cls-8{fill:#fdd20a;}.cls-9{fill:#65bc46;}.cls-10{fill:#43a244;}.cls-11{stroke:#fff;stroke-width:5.19px;}</style><clipPath id="clip-path"><circle class="cls-1" cx="50" cy="49.6" r="44.07"/></clipPath><linearGradient id="Unbenannter_Verlauf_2" x1="1886.68" y1="2487.71" x2="1893.94" y2="2487.71" gradientTransform="translate(-1855.33 -2453.36)" gradientUnits="userSpaceOnUse"><stop offset="0.01" stop-color="#6176b9"/><stop offset="0.69" stop-color="#394a9f"/></linearGradient><linearGradient id="Unbenannter_Verlauf_2-2" x1="1909.52" y1="2485.5" x2="1916.14" y2="2485.5" xlink:href="#Unbenannter_Verlauf_2"/></defs><g class="cls-2"><path class="cls-3" d="M59.43,95c-2.12-4.14-4.16-7.94-5.42-10.46-3.36-6.72-6.73-16.19-5.2-22.3.28-1.11-3.16-41.11-5.59-42.4A50.65,50.65,0,0,0,31.6,16c-2.12-.34-2.6.25-3.49.39.84.08,4.83,2.05,5.6,2.16-.77.53-3.05,0-4.51.63a2.91,2.91,0,0,0-1.27,2.18c4.15-.42,10.65,0,14.49,1.7-3.06.35-7.7.74-9.7,1.79-5.8,3.05-8.36,10.19-6.83,18.75s8.24,39.71,10.38,50.11S63,101.91,59.42,95Z"/><path class="cls-4" d="M62.52,96c-2.55-5.06-5.16-9.9-6.66-12.9-3.37-6.73-6.72-16.2-5.2-22.31.29-1.11.29-5.65,1.21-6.25,7.13-4.66,6.62-.16,9.49-2.25a7.89,7.89,0,0,0,3.17-4.15c1.83-6.42-2.55-17.6-7.45-22.49a13,13,0,0,0-6.79-3.12,14.94,14.94,0,0,0-5.2-4.14A24.42,24.42,0,0,0,29.61,16c.85.08,2.76,1.81,3.53,1.92-1.17.8-4.28.7-4.26,2.46a25.37,25.37,0,0,1,12.58,2,23.18,23.18,0,0,0-7.89,2.15c-5.82,3.05-7.34,9.16-5.82,17.72S36,81.88,38.14,92.26s27.55,10,24.39,3.74Z"/></g><circle class="cls-5" cx="37.69" cy="42.58" r="3.21"/><circle class="cls-4" cx="39.12" cy="41.51" r="0.83"/><circle class="cls-5" cx="59.14" cy="40.68" r="2.75"/><circle class="cls-4" cx="60.37" cy="39.76" r="0.71"/><path class="cls-6" d="M38.61,33.29a5.33,5.33,0,0,0-4.77.38c-2.35,1.47-2.26,3-2.26,3s-1.25-2.78,2.07-4.14S38.61,33.29,38.61,33.29Z"/><path class="cls-7" d="M60.81,33.07a7.58,7.58,0,0,0-3.1-1c-2.77,0-3.52,1.25-3.52,1.25s.46-2.91,4-2.33A3.58,3.58,0,0,1,60.81,33.07Z"/><path class="cls-8" d="M47.52,55c.32-2,5.34-5.62,8.9-5.84A34.73,34.73,0,0,0,64,48.23c3-.7,10.63-2.61,12.74-3.59s11.1.48,4.77,4a102.76,102.76,0,0,1-15.4,5.92c-5.27,1.58-8.46-1.51-10.22,1.09-1.39,2.06-.28,4.88,6,5.46,8.51.79,16.66-3.83,17.56-1.37S72.2,65.27,67.2,65.37,52.14,62.07,50.63,61,47.1,57.51,47.52,55Z"/><path class="cls-9" d="M51.36,80.64s-11.94-6.38-12.14-3.8,0,13.15,1.39,14S52,85.62,52,85.62l-.6-5Zm4.58-.41s8.17-6.17,10-5.78,2.18,13.15.59,13.76S55.57,85,55.57,85L56,80.23Z"/><path class="cls-10" d="M48.47,81.31c0,4.18-.6,6,1.19,6.37s5.18,0,6.38-.79.2-6.17-.2-7.17-7.37-.21-7.37,1.59Z"/><path class="cls-9" d="M49.24,80.39c0,4.18-.6,6,1.18,6.36s5.17,0,6.38-.8.2-6.16-.2-7.16-7.37-.2-7.37,1.59Z"/><circle class="cls-11" cx="50" cy="49.6" r="45"/></svg>