<?xml version="1.0" encoding="utf-8"?>
<!-- Generator: Adobe Illustrator 26.5.3, SVG Export Plug-In . SVG Version: 6.00 Build 0)  -->
<svg version="1.1" id="Ebene_1" focusable="false" xmlns="http://www.w3.org/2000/svg" xmlns:xlink="http://www.w3.org/1999/xlink"
	 x="0px" y="0px" viewBox="0 0 192 192" style="enable-background:new 0 0 192 192;" xml:space="preserve">
<style type="text/css">
	.st0{fill:#34A853;}
	.st1{fill:#4285F4;}
	.st2{fill:#EA4335;}
	.st3{fill:#FBBC05;}
</style>
<g>
	<circle class="st0" cx="156.1" cy="150" r="20.1"/>
	<circle class="st1" cx="96" cy="100" r="29.9"/>
	<path class="st2" d="M6,139c0,22.6,18.4,40.9,40.9,40.9H96v-20.1l-50.1-0.1c-11,0-19.9-10.2-19.9-22.3V115H6V139z"/>
	<path class="st3" d="M185.9,61c0-22.6-18.4-40.9-40.9-40.9h-24.1l25,20.1c11,0,20.1,10.4,20.1,22.4V100H186L185.9,61L185.9,61z"/>
	<path class="st1" d="M116,0H75.8L60.9,20.1h-14C24.3,20.1,6,38.5,6,61v24.1h20.1V62.4c0-12.1,9.1-22.4,20.1-22.4h100L116,0z"/>
</g>
</svg>
