<svg id="Ebene_1" data-name="Ebene 1" xmlns="http://www.w3.org/2000/svg" viewBox="0 0 100 100"><defs><style>.cls-1{fill:#4285f4;}.cls-2{fill:#34a853;}.cls-3{fill:#fbbc05;}.cls-4{fill:#ea4335;}</style></defs><path class="cls-1" d="M50.92,41.65V59.43H75.63a21.15,21.15,0,0,1-9.22,13.82l14.9,11.57C90,76.8,95,65,95,51a53.08,53.08,0,0,0-.83-9.39Z"/><path class="cls-2" d="M25.18,58.74l-3.36,2.57L9.93,70.58h0a45.9,45.9,0,0,0,41,25.34c12.4,0,22.79-4.09,30.39-11.11L66.4,73.25A27.6,27.6,0,0,1,25.2,58.77Z"/><path class="cls-3" d="M9.93,29.42a45.42,45.42,0,0,0,0,41.16S25.2,58.72,25.2,58.72a26.8,26.8,0,0,1,0-17.45Z"/><path class="cls-4" d="M50.92,22.37a25,25,0,0,1,17.57,6.84L81.64,16.06a44,44,0,0,0-30.72-12,45.82,45.82,0,0,0-41,25.34L25.2,41.28A27.42,27.42,0,0,1,50.92,22.37Z"/></svg>