<svg id="Ebene_1" data-name="Ebene 1" xmlns="http://www.w3.org/2000/svg" viewBox="0 0 100 100"><defs><style>.cls-1{fill:red;}.cls-2{fill:#fff;}</style></defs><path class="cls-1" d="M95.08,26.62a11.64,11.64,0,0,0-8.22-8.23c-7.25-1.94-36.34-1.94-36.34-1.94s-29.08,0-36.33,1.94A11.64,11.64,0,0,0,6,26.62C4,33.86,4,49,4,49S4,64.14,6,71.39a11.65,11.65,0,0,0,8.22,8.22c7.25,1.94,36.33,1.94,36.33,1.94s29.09,0,36.34-1.94a11.65,11.65,0,0,0,8.22-8.22C97,64.14,97,49,97,49S97,33.86,95.08,26.62Z"/><path class="cls-2" d="M41.21,63,65.38,49l-24.17-14Z"/></svg>